<svg id="Grupo_677" data-name="Grupo 677" xmlns="http://www.w3.org/2000/svg" width="182" height="182" viewBox="0 0 182 182">
  <defs>
    <style>
      .cls-1 {
        fill: #1ad598;
      }

      .cls-2 {
        fill: #fff;
      }
    </style>
  </defs>
  <circle id="Ellipse_4" data-name="Ellipse 4" class="cls-1" cx="91" cy="91" r="91"/>
  <path id="check" class="cls-2" d="M921.625,3839a8.357,8.357,0,0,0-5.934,2.809c-13.657,14.748-26.126,29.217-39.242,43.648l-15.419-13.322a8.221,8.221,0,0,0-12.137,1.449,9.8,9.8,0,0,0,1.345,13.08l0,0,21.576,18.6a8.178,8.178,0,0,0,11.508-.727c15.52-16.762,29.425-33.225,44.592-49.607a9.82,9.82,0,0,0,.114-13.154A8.313,8.313,0,0,0,921.625,3839Z" transform="translate(-793.869 -3785.879)"/>
</svg>
