<svg id="XMLID_648_" xmlns="http://www.w3.org/2000/svg" width="100.915" height="78.052" viewBox="0 0 100.915 78.052">
  <defs>
    <style>
      .cls-1 {
        fill: #909fb9;
      }
    </style>
  </defs>
  <path id="XMLID_1379_" class="cls-1" d="M189.612,101.081a30.534,30.534,0,1,0,30.534,30.534A30.569,30.569,0,0,0,189.612,101.081Zm0,57.127A26.592,26.592,0,1,1,216.2,131.615,26.622,26.622,0,0,1,189.612,158.208Z" transform="translate(-127.724 -92.589)"/>
  <path id="XMLID_1380_" class="cls-1" d="M300.117,221.437h-15.3a3.917,3.917,0,0,0-4.429-1.834l-3.619-3.619a1.971,1.971,0,0,0-2.787,2.788l3.619,3.619a3.939,3.939,0,0,0,7.216,2.989h15.3a1.971,1.971,0,1,0,0-3.942Z" transform="translate(-219.515 -184.382)"/>
  <path id="XMLID_1384_" class="cls-1" d="M61.888,58a38.994,38.994,0,0,0-31.32,15.768H12.614a1.971,1.971,0,0,0,0,3.942H27.987a38.832,38.832,0,0,0-3.034,6.708c-.04,0-.079-.006-.12-.006H1.971a1.971,1.971,0,1,0,0,3.942H23.835a38.907,38.907,0,0,0-.923,6.7H15.374a1.971,1.971,0,0,0,0,3.942h7.538a38.756,38.756,0,0,0,5.075,17.345H1.971a1.971,1.971,0,1,0,0,3.942h28.6A39.02,39.02,0,1,0,61.888,58Zm0,74.11A35.084,35.084,0,1,1,96.973,97.023,35.124,35.124,0,0,1,61.888,132.107Z" transform="translate(0 -57.997)"/>
  <path id="XMLID_1385_" class="cls-1" d="M305.971,340.95a1.972,1.972,0,1,0,1.393.577A1.989,1.989,0,0,0,305.971,340.95Z" transform="translate(-244.082 -285.18)"/>
  <path id="XMLID_1386_" class="cls-1" d="M305.971,154.992a1.972,1.972,0,1,0-1.394-.577A1.986,1.986,0,0,0,305.971,154.992Z" transform="translate(-244.082 -132.709)"/>
  <path id="XMLID_1387_" class="cls-1" d="M211.021,246a1.972,1.972,0,1,0,1.394.577A1.985,1.985,0,0,0,211.021,246Z" transform="translate(-167.846 -208.945)"/>
  <path id="XMLID_1388_" class="cls-1" d="M1.971,303.942H12.614a1.971,1.971,0,0,0,0-3.942H1.971a1.971,1.971,0,0,0,0,3.942Z" transform="translate(0 -252.302)"/>
</svg>
