<svg xmlns="http://www.w3.org/2000/svg" width="134.41" height="128.566" viewBox="0 0 134.41 128.566">
  <g id="enter" transform="translate(0 -0.333)">
    <path id="Caminho_135" data-name="Caminho 135" d="M89.119,227.766H4.383a4.383,4.383,0,1,1,0-8.766H89.119a4.383,4.383,0,1,1,0,8.766Zm0,0" transform="translate(0 -158.767)" fill="#fff"/>
    <path id="Caminho_136" data-name="Caminho 136" d="M228.386,189.156a4.386,4.386,0,0,1-3.1-7.486l20.278-20.277-20.278-20.278a4.385,4.385,0,0,1,6.2-6.2l23.375,23.376a4.384,4.384,0,0,1,0,6.2l-23.375,23.375A4.35,4.35,0,0,1,228.386,189.156Zm0,0" transform="translate(-162.642 -96.782)" fill="#fff"/>
    <path id="Caminho_137" data-name="Caminho 137" d="M96.608,128.9A63.95,63.95,0,0,1,36.778,88.131a4.382,4.382,0,1,1,8.158-3.2,55.517,55.517,0,1,0,0-40.627,4.382,4.382,0,1,1-8.158-3.2,64.284,64.284,0,1,1,59.829,87.8Zm0,0" transform="translate(-26.481)" fill="#fff"/>
  </g>
</svg>
