<svg id="Grupo_678" data-name="Grupo 678" xmlns="http://www.w3.org/2000/svg" width="646.922" height="79.021" viewBox="0 0 646.922 79.021">
  <defs>
    <style>
      .cls-1, .cls-2 {
        fill: #3c61a1;
      }

      .cls-2 {
        fill-rule: evenodd;
      }

      .cls-3 {
        fill: #e41e2f;
      }

      .cls-4 {
        fill: #0588c9;
      }

      .cls-5 {
        fill: #72b844;
      }

      .cls-6 {
        fill: #7e7f81;
      }
    </style>
  </defs>
  <path id="Caminho_1" data-name="Caminho 1" class="cls-1" d="M227.673,84.944,221.3,78.568l-6.11,6.114a8.319,8.319,0,0,0,0,11.722l6.372,6.374,6.114-6.116a8.314,8.314,0,0,0,0-11.717" transform="translate(-89.935 -51.157)"/>
  <path id="Caminho_2" data-name="Caminho 2" class="cls-2" d="M199.792,84.672l-6.107-6.107L187.3,84.948a8.306,8.306,0,0,0,0,11.717l6.11,6.112,6.378-6.383a8.323,8.323,0,0,0,0-11.722" transform="translate(-123.468 -51.16)"/>
  <path id="Caminho_3" data-name="Caminho 3" class="cls-3" d="M284.433,99.639,253.345,68.546a8.323,8.323,0,0,0-11.728,0L216.645,93.525l6.372,6.376a8.32,8.32,0,0,1,0,11.719l-6.114,6.114,24.714,24.718a8.315,8.315,0,0,0,11.728,0l31.088-31.092a8.323,8.323,0,0,0,0-11.722m-19.884,3.594a11.125,11.125,0,0,1-3.531,8.339c-3.6,3.493-7.347,6.834-11.089,10.175a3.47,3.47,0,0,1-1.52.753c-.062.015-.121.033-.185.046s-.132.02-.2.029a3.7,3.7,0,0,1-.544.046l-.009,0h-.029a3.8,3.8,0,0,1-.527-.046,3.573,3.573,0,0,1-1.914-.841c-3.715-3.313-7.438-6.623-11.012-10.085a10.765,10.765,0,0,1-3.57-8.325c0-.046-.009-.092-.009-.139a9.532,9.532,0,0,1,.621-3.365c.029-.084.06-.165.09-.249.02-.048.038-.1.06-.145a8.64,8.64,0,0,1,4.053-4.548,9.53,9.53,0,0,1,3-1.1c.256-.048.5-.088.758-.115.029,0,.062,0,.092-.009.265-.024.524-.035.782-.037.044,0,.084-.007.126-.007s.095.007.143.007q.185.007.37.02a9.542,9.542,0,0,1,6.979,3.6,9.558,9.558,0,0,1,15.021.046c.115.145.227.293.333.445.059.084.115.17.17.255.121.185.24.377.348.573.018.033.04.066.057.1.13.24.251.491.359.747l.042.088c.108.26.2.524.289.8l.033.1c.082.266.152.54.211.815.009.046.016.09.024.134.053.271.1.546.126.826.007.057.009.114.013.174.011.119.022.236.029.355s.007.233.009.35c0,.048.007.095.007.145Z" transform="translate(-85.279 -66.113)"/>
  <path id="Caminho_4" data-name="Caminho 4" class="cls-4" d="M205.056,76.387a4.23,4.23,0,1,0,4.229,4.229,4.233,4.233,0,0,0-4.229-4.229" transform="translate(-104.3 -53.779)"/>
  <path id="Caminho_5" data-name="Caminho 5" class="cls-4" d="M244.063,111.219a8.323,8.323,0,0,1,0-11.722l6.114-6.114L225.464,68.665a8.319,8.319,0,0,0-11.728,0L189.03,93.377l6.108,6.107a8.323,8.323,0,0,1,0,11.722l-6.381,6.383,24.978,24.987a8.323,8.323,0,0,0,11.728,0l24.974-24.983Zm-26.1,13.772a2.334,2.334,0,1,1-4.667,0V108.358l-9.713-5.55a2.334,2.334,0,0,1,2.315-4.053l10.891,6.22A2.334,2.334,0,0,1,217.962,107Zm1.606-23.285a8.9,8.9,0,1,1,8.9-8.9,8.908,8.908,0,0,1-8.9,8.9m16.047,1.1-9.713,5.55v16.633a2.334,2.334,0,1,1-4.667,0V107a2.336,2.336,0,0,1,1.176-2.026l10.889-6.22a2.334,2.334,0,1,1,2.315,4.053" transform="translate(-118.814 -65.972)"/>
  <path id="Caminho_6" data-name="Caminho 6" class="cls-5" d="M183.3,102.813l10.99-10.993a1.406,1.406,0,0,0-1.989-1.989l-9,9V91.62l6.083-6.083a1.408,1.408,0,0,0-1.991-1.991L183.3,87.64V80.105a1.407,1.407,0,0,0-2.815,0v7.583l-4.143-4.143a1.407,1.407,0,0,0-1.989,1.991l6.132,6.132v7.213l-9.05-9.05a1.407,1.407,0,0,0-1.991,1.989l11.041,11.043v6.982c.465.04.932.079,1.407.079s.943-.042,1.407-.082Z" transform="translate(-142.528 -51)"/>
  <path id="Caminho_7" data-name="Caminho 7" class="cls-5" d="M220.836,99.91l6.381-6.383-24.98-24.985a8.318,8.318,0,0,0-11.73,0L159.42,99.635a8.307,8.307,0,0,0,0,11.722l31.086,31.095a8.33,8.33,0,0,0,11.73,0l24.707-24.712-6.107-6.112a8.306,8.306,0,0,1,0-11.717m-7.955,9.072c0,.059.007.119.007.178a16.039,16.039,0,0,1-.6,4.346c-.029.108-.059.214-.09.319-.018.064-.035.13-.053.192a11.007,11.007,0,0,1-3.057,4.958,16.361,16.361,0,0,1-25.163.335,11.027,11.027,0,0,1-2.095-2.524c-.11-.187-.218-.377-.322-.573-.057-.11-.11-.218-.163-.33-.119-.24-.231-.487-.337-.738-.018-.044-.037-.088-.055-.132-.128-.311-.242-.634-.348-.963l-.04-.117c-.106-.333-.2-.676-.28-1.026l-.033-.132c-.079-.346-.145-.7-.2-1.055-.009-.057-.018-.115-.024-.172-.051-.35-.095-.7-.123-1.064,0-.075-.007-.152-.013-.225-.009-.152-.02-.306-.024-.46s-.007-.3-.009-.452c0-.062-.009-.123-.009-.187l0-.066.007-.1c-.007-.172-.053-.335-.053-.509a16.329,16.329,0,0,1,.788-4.788c.081-.291.167-.579.267-.861a15.712,15.712,0,0,1,.621-1.484,15.453,15.453,0,0,1,.872-1.606c.167-.271.33-.542.515-.8.139-.2.245-.421.394-.614,3.484-4.511,7.114-8.825,10.737-13.14a3.136,3.136,0,0,1,1.469-.971c.059-.02.117-.044.176-.059s.13-.026.2-.04a2.767,2.767,0,0,1,.524-.055h.009l.029,0a2.588,2.588,0,0,1,.506.057,3.154,3.154,0,0,1,1.857,1.086c3.594,4.277,7.2,8.554,10.653,13.023.2.264.361.564.551.841.09.128.17.258.255.39a16.379,16.379,0,0,1,1.172,2.156c.117.258.234.513.337.775a16,16,0,0,1,.573,1.841c.121.46.249.914.333,1.39.055.346.07.714.106,1.073a15.982,15.982,0,0,1,.181,1.788c0,.17-.044.326-.048.493Z" transform="translate(-157 -66.122)"/>
  <path id="Caminho_8" data-name="Caminho 8" class="cls-6" d="M296.323,97.282a33.159,33.159,0,0,1-2.229,12.36,20.346,20.346,0,0,1-6.975,9.092,21.119,21.119,0,0,1-6.978,3.158,37.7,37.7,0,0,1-9.5,1.073h-11.58V73.528q3.931-.449,6.94-.595t5.605-.145a31.737,31.737,0,0,1,11.876,1.929A18.726,18.726,0,0,1,295.133,87.78a36.69,36.69,0,0,1,1.189,9.5m-6.607.405a34,34,0,0,0-.82-7.693,14.79,14.79,0,0,0-2.9-6.1,13.617,13.617,0,0,0-5.546-3.982,23.176,23.176,0,0,0-8.675-1.412c-.991,0-2.024.026-3.09.075s-2.123.148-3.165.3v38.675h6.18a20.457,20.457,0,0,0,8.453-1.562,14.619,14.619,0,0,0,5.581-4.238,16.733,16.733,0,0,0,3.055-6.286,31.109,31.109,0,0,0,.93-7.775" transform="translate(-34.277 -58.107)"/>
  <path id="Caminho_9" data-name="Caminho 9" class="cls-6" d="M311.168,97.471a27.458,27.458,0,0,1-.89,7.017,16.96,16.96,0,0,1-2.861,5.973,14.138,14.138,0,0,1-5.083,4.156,16.78,16.78,0,0,1-7.572,1.559,17.267,17.267,0,0,1-7.532-1.482,13.667,13.667,0,0,1-5.013-4.009,16.568,16.568,0,0,1-2.819-5.9,27.651,27.651,0,0,1-.892-7.092,23.674,23.674,0,0,1,1.039-7.052,16.739,16.739,0,0,1,3.119-5.826,15.245,15.245,0,0,1,5.158-3.971,16.512,16.512,0,0,1,7.237-1.487,16.825,16.825,0,0,1,7.422,1.487,13.915,13.915,0,0,1,4.975,3.971,16.293,16.293,0,0,1,2.821,5.753,26.2,26.2,0,0,1,.89,6.9m-6.607,0a25.583,25.583,0,0,0-.41-4.564,12.663,12.663,0,0,0-1.456-4.083,8.013,8.013,0,0,0-2.905-2.934,9.344,9.344,0,0,0-4.841-1.112,9.228,9.228,0,0,0-4.731,1.112,8.532,8.532,0,0,0-3.019,2.934,12.853,12.853,0,0,0-1.6,4.083,21.679,21.679,0,0,0-.485,4.564,27.3,27.3,0,0,0,.41,4.678,12.52,12.52,0,0,0,1.526,4.268,9.465,9.465,0,0,0,2.98,3.119,8.529,8.529,0,0,0,4.771,1.225,9.051,9.051,0,0,0,4.918-1.225,8.56,8.56,0,0,0,2.978-3.119,13.555,13.555,0,0,0,1.456-4.268,27.54,27.54,0,0,0,.41-4.678" transform="translate(-10.894 -50.207)"/>
  <path id="Caminho_10" data-name="Caminho 10" class="cls-6" d="M310.275,110.558a11.594,11.594,0,0,0,6.535-1.934,7.614,7.614,0,0,0,1.853-1.751,2.986,2.986,0,0,0,.671-1.672V79.6h.445a3.242,3.242,0,0,0,.408-.037,3.2,3.2,0,0,1,.48-.04,5.734,5.734,0,0,1,3.528,1.079q1.444,1.074,1.447,3.894v30.361h-6.308v-3.2a13.436,13.436,0,0,1-4.156,3,15.65,15.65,0,0,1-6.907,1.315,13.752,13.752,0,0,1-6.68-1.332,8.866,8.866,0,0,1-3.526-3.416,11.4,11.4,0,0,1-1.372-4.563c-.148-1.658-.225-3.257-.225-4.788V79.6h.447a3.235,3.235,0,0,0,.41-.037,3.153,3.153,0,0,1,.48-.04,5.871,5.871,0,0,1,3.526,1.044q1.448,1.041,1.447,3.868v17.488a20.663,20.663,0,0,0,.408,4.614,4.246,4.246,0,0,0,1.672,2.6,6.513,6.513,0,0,0,2.412,1.119,13.579,13.579,0,0,0,3.006.3" transform="translate(10.707 -50.003)"/>
  <path id="Caminho_11" data-name="Caminho 11" class="cls-6" d="M314.535,116.044a11.05,11.05,0,0,1-.632-3.081c-.073-1.114-.112-2.214-.112-3.3V74.917h.445a2.868,2.868,0,0,0,.412-.037,3.473,3.473,0,0,1,.482-.037,5.967,5.967,0,0,1,3.489,1.033c.987.689,1.484,1.943,1.484,3.76v5.9h11.059v5.418H320.1V110.1q0,6.085,4.823,6.088a6.015,6.015,0,0,0,2.227-.408,9.675,9.675,0,0,0,1.857-.965,12.1,12.1,0,0,0,1.372-1.079,5.376,5.376,0,0,0,.7-.74,20.355,20.355,0,0,1,1.524,2.152,3.856,3.856,0,0,1,.628,2,2.294,2.294,0,0,1-.667,1.447,6.738,6.738,0,0,1-1.857,1.445,12.115,12.115,0,0,1-2.931,1.119,15.636,15.636,0,0,1-3.821.44,11.273,11.273,0,0,1-6.163-1.48,8.086,8.086,0,0,1-3.264-4.083" transform="translate(31.537 -55.637)"/>
  <path id="Caminho_12" data-name="Caminho 12" class="cls-6" d="M356.294,97.471a27.456,27.456,0,0,1-.892,7.017,16.959,16.959,0,0,1-2.859,5.973,14.182,14.182,0,0,1-5.085,4.156,16.789,16.789,0,0,1-7.57,1.559,17.3,17.3,0,0,1-7.537-1.482,13.681,13.681,0,0,1-5.011-4.009,16.571,16.571,0,0,1-2.817-5.9,27.651,27.651,0,0,1-.892-7.092,23.6,23.6,0,0,1,1.039-7.052,16.7,16.7,0,0,1,3.117-5.826,15.233,15.233,0,0,1,5.16-3.971,16.5,16.5,0,0,1,7.235-1.487,16.847,16.847,0,0,1,7.424,1.487,13.884,13.884,0,0,1,4.971,3.971,16.232,16.232,0,0,1,2.823,5.753,26.2,26.2,0,0,1,.892,6.9m-6.607,0a25.574,25.574,0,0,0-.412-4.564,12.654,12.654,0,0,0-1.454-4.083,8.038,8.038,0,0,0-2.907-2.934,9.347,9.347,0,0,0-4.843-1.112,9.213,9.213,0,0,0-4.729,1.112,8.525,8.525,0,0,0-3.018,2.934,12.71,12.71,0,0,0-1.6,4.083,21.548,21.548,0,0,0-.487,4.564,27.5,27.5,0,0,0,.407,4.678,12.608,12.608,0,0,0,1.528,4.268,9.452,9.452,0,0,0,2.984,3.119,8.5,8.5,0,0,0,4.766,1.225,9.046,9.046,0,0,0,4.918-1.225,8.6,8.6,0,0,0,2.98-3.119,13.546,13.546,0,0,0,1.454-4.268,27.534,27.534,0,0,0,.412-4.678" transform="translate(43.371 -50.207)"/>
  <path id="Caminho_13" data-name="Caminho 13" class="cls-6" d="M343.064,79.953a5.709,5.709,0,0,1,3.081.857,3.8,3.8,0,0,1,1.672,2.857,10.862,10.862,0,0,1,3.118-2.934,8.544,8.544,0,0,1,4.824-1.374,10.829,10.829,0,0,1,1.744.152,8.008,8.008,0,0,1,1.744.48,3.543,3.543,0,0,1,1.335.927,2.286,2.286,0,0,1,.518,1.559,6.427,6.427,0,0,1-.593,2.561,14.231,14.231,0,0,1-1.187,2.264,7.425,7.425,0,0,0-2.077-1.372,7.113,7.113,0,0,0-2.824-.482,7.193,7.193,0,0,0-2.412.407,7.12,7.12,0,0,0-2.039,1.115,5.68,5.68,0,0,0-1.41,1.595,3.618,3.618,0,0,0-.519,1.854v24.646h-6.308V80.028h.518a2.835,2.835,0,0,0,.447-.037,2.325,2.325,0,0,1,.368-.037" transform="translate(65.136 -50.207)"/>
  <path id="Caminho_14" data-name="Caminho 14" class="cls-6" d="M386.4,112.932V73.067a2.1,2.1,0,0,0,.52-.073,5.3,5.3,0,0,0,.559-.035,6.439,6.439,0,0,1,.705-.037,5.9,5.9,0,0,1,1.407.183,3.862,3.862,0,0,1,1.377.67A3.514,3.514,0,0,1,392,75.186a6.1,6.1,0,0,1,.408,2.412V122.8H386.4L361.159,84.278V122.8h-6.015V73.292a7.446,7.446,0,0,1,1.264-.26,12.321,12.321,0,0,1,1.632-.11,4.993,4.993,0,0,1,2.563.555,5.474,5.474,0,0,1,1.74,1.892Z" transform="translate(81.263 -57.946)"/>
  <path id="Caminho_15" data-name="Caminho 15" class="cls-6" d="M405.076,106.973a19.59,19.59,0,0,0,.152,2.784,2.908,2.908,0,0,0,.553,1.484,1.925,1.925,0,0,0,1.114.632,8.97,8.97,0,0,0,1.822.148v2.969a9.96,9.96,0,0,1-1.637.372,12.848,12.848,0,0,1-2,.147,8.453,8.453,0,0,1-4.057-.925,4.037,4.037,0,0,1-2.026-3.3,16.9,16.9,0,0,1-4.442,3.156,15.281,15.281,0,0,1-6.806,1.3,17.615,17.615,0,0,1-3.885-.447,9.416,9.416,0,0,1-3.551-1.632,9.177,9.177,0,0,1-2.628-3.2,11.158,11.158,0,0,1-1.035-5.123,9.777,9.777,0,0,1,1.963-6.308,13.97,13.97,0,0,1,4.845-3.859,21.619,21.619,0,0,1,6.178-1.932,47.024,47.024,0,0,1,6.026-.592h1.555a13.963,13.963,0,0,1,1.555.073V91.608a7.3,7.3,0,0,0-1.594-5.086q-1.6-1.744-6.127-1.744a16.386,16.386,0,0,0-5.641.852,20.328,20.328,0,0,0-4.456,2.339h-.74a11.055,11.055,0,0,1-1-2.079,5.514,5.514,0,0,1-.412-1.782,2.348,2.348,0,0,1,1.192-1.819,12.3,12.3,0,0,1,3.079-1.517,24.15,24.15,0,0,1,4.2-1.042,28.449,28.449,0,0,1,4.529-.372,20.893,20.893,0,0,1,6.317.817,9.767,9.767,0,0,1,4.114,2.451,9.02,9.02,0,0,1,2.216,4.083,22.583,22.583,0,0,1,.636,5.641Zm-6.235-9.5H396.7a40.139,40.139,0,0,0-4.806.3,17.183,17.183,0,0,0-4.434,1.114,8.48,8.48,0,0,0-3.253,2.266,5.634,5.634,0,0,0-1.253,3.821,6.243,6.243,0,0,0,1.328,3.931q1.332,1.708,4.953,1.711a11.891,11.891,0,0,0,3.659-.559,14.048,14.048,0,0,0,3.066-1.372,8.035,8.035,0,0,0,2.1-1.784,2.98,2.98,0,0,0,.775-1.852Z" transform="translate(107.119 -50.207)"/>
  <path id="Caminho_16" data-name="Caminho 16" class="cls-6" d="M395.893,116.044a11.052,11.052,0,0,1-.632-3.081c-.073-1.114-.112-2.214-.112-3.3V74.917h.445a2.863,2.863,0,0,0,.412-.037,3.479,3.479,0,0,1,.483-.037,5.965,5.965,0,0,1,3.488,1.033c.987.689,1.485,1.943,1.485,3.76v5.9h11.058v5.418H401.46V110.1q0,6.085,4.823,6.088a6.012,6.012,0,0,0,2.227-.408,9.671,9.671,0,0,0,1.857-.965,12.1,12.1,0,0,0,1.372-1.079,5.377,5.377,0,0,0,.7-.74,20.767,20.767,0,0,1,1.526,2.152,3.875,3.875,0,0,1,.626,2,2.3,2.3,0,0,1-.667,1.447,6.735,6.735,0,0,1-1.857,1.445,12.129,12.129,0,0,1-2.929,1.119,15.652,15.652,0,0,1-3.823.44,11.272,11.272,0,0,1-6.163-1.48,8.086,8.086,0,0,1-3.264-4.083" transform="translate(129.367 -55.637)"/>
  <path id="Caminho_17" data-name="Caminho 17" class="cls-6" d="M421.394,110.558a11.579,11.579,0,0,0,6.533-1.934,7.577,7.577,0,0,0,1.854-1.751,2.981,2.981,0,0,0,.67-1.672V79.6h.447a3.246,3.246,0,0,0,.408-.037,3.173,3.173,0,0,1,.48-.04,5.735,5.735,0,0,1,3.528,1.079c.96.716,1.447,2.015,1.447,3.894v30.361h-6.31v-3.2a13.433,13.433,0,0,1-4.156,3,15.64,15.64,0,0,1-6.9,1.315,13.752,13.752,0,0,1-6.68-1.332,8.832,8.832,0,0,1-3.524-3.416,11.307,11.307,0,0,1-1.375-4.563c-.152-1.658-.225-3.257-.225-4.788V79.6h.447a3.115,3.115,0,0,0,.405-.037,3.224,3.224,0,0,1,.484-.04,5.859,5.859,0,0,1,3.524,1.044q1.45,1.041,1.447,3.868v17.488a20.664,20.664,0,0,0,.412,4.614,4.223,4.223,0,0,0,1.667,2.6,6.548,6.548,0,0,0,2.416,1.119,13.518,13.518,0,0,0,3,.3" transform="translate(144.324 -50.003)"/>
  <path id="Caminho_18" data-name="Caminho 18" class="cls-6" d="M427.657,79.953a5.71,5.71,0,0,1,3.081.857,3.8,3.8,0,0,1,1.672,2.857,10.837,10.837,0,0,1,3.119-2.934,8.545,8.545,0,0,1,4.823-1.374,10.848,10.848,0,0,1,1.744.152,8.034,8.034,0,0,1,1.744.48,3.54,3.54,0,0,1,1.335.927,2.285,2.285,0,0,1,.517,1.559,6.437,6.437,0,0,1-.592,2.561,14.384,14.384,0,0,1-1.187,2.264,7.421,7.421,0,0,0-2.077-1.372,7.113,7.113,0,0,0-2.823-.482,7.191,7.191,0,0,0-2.412.407,7.119,7.119,0,0,0-2.039,1.115,5.681,5.681,0,0,0-1.41,1.595,3.619,3.619,0,0,0-.522,1.854v24.646h-6.306V80.028h.517a2.832,2.832,0,0,0,.447-.037,2.33,2.33,0,0,1,.368-.037" transform="translate(166.857 -50.207)"/>
  <path id="Caminho_19" data-name="Caminho 19" class="cls-6" d="M454.6,110.76a13.912,13.912,0,0,0,3.749-.447,11.611,11.611,0,0,0,2.745-1.112,13.276,13.276,0,0,0,1.971-1.372,14.341,14.341,0,0,0,1.333-1.3,15.034,15.034,0,0,1,1.451,2.224,4.377,4.377,0,0,1,.628,1.857,2.487,2.487,0,0,1-.367,1.24,4.8,4.8,0,0,1-1.264,1.315,15.055,15.055,0,0,1-4.379,2.147,23.281,23.281,0,0,1-13.028-.139,13.873,13.873,0,0,1-5.4-3.229,15.408,15.408,0,0,1-3.676-5.828,25.131,25.131,0,0,1-1.35-8.8,21.588,21.588,0,0,1,1.372-8.092,16.183,16.183,0,0,1,3.6-5.6,14.026,14.026,0,0,1,5.081-3.229,17.125,17.125,0,0,1,5.9-1.04,15.265,15.265,0,0,1,6.493,1.262A12.212,12.212,0,0,1,463.878,84a14.008,14.008,0,0,1,2.524,4.9,20.335,20.335,0,0,1,.817,5.751c0,.694-.014,1.4-.038,2.117a17.8,17.8,0,0,1-.187,2.044H443.613a14.428,14.428,0,0,0,2.859,8.669q2.63,3.277,8.127,3.282m6.308-16.7a15.919,15.919,0,0,0-.407-3.711,8.186,8.186,0,0,0-1.363-3.006,6.6,6.6,0,0,0-2.55-2.042,9.161,9.161,0,0,0-3.883-.742,8.468,8.468,0,0,0-6.316,2.524,10.593,10.593,0,0,0-2.773,6.977Z" transform="translate(179.703 -50.205)"/>
</svg>
