<svg xmlns="http://www.w3.org/2000/svg" width="180.861" height="70.903" viewBox="0 0 180.861 70.903">
  <g id="Grupo_805" data-name="Grupo 805" transform="translate(-106 -19)" opacity="0.5">
    <g id="Grupo_690" data-name="Grupo 690" transform="translate(106 19)">
      <g id="Grupo_1" data-name="Grupo 1">
        <path id="Caminho_1" data-name="Caminho 1" d="M226.143,84.289l-5.721-5.721-5.482,5.486a7.464,7.464,0,0,0,0,10.517l5.717,5.719,5.486-5.488a7.46,7.46,0,0,0,0-10.514" transform="translate(-102.554 -53.972)" fill="#1f387e"/>
        <path id="Caminho_2" data-name="Caminho 2" d="M198.261,84.045l-5.48-5.48-5.725,5.727a7.453,7.453,0,0,0,0,10.514l5.482,5.484,5.723-5.727a7.468,7.468,0,0,0,0-10.517" transform="translate(-129.778 -53.975)" fill="#1f387e" fill-rule="evenodd"/>
        <path id="Caminho_3" data-name="Caminho 3" d="M277.469,96.2,249.575,68.3a7.468,7.468,0,0,0-10.523,0L216.645,90.711l5.717,5.721a7.466,7.466,0,0,1,0,10.515l-5.486,5.486,22.175,22.179a7.461,7.461,0,0,0,10.523,0l27.894-27.9a7.468,7.468,0,0,0,0-10.517m-17.841,3.225a9.982,9.982,0,0,1-3.168,7.482c-3.229,3.134-6.593,6.132-9.95,9.13a3.114,3.114,0,0,1-1.364.676c-.055.014-.109.03-.166.041s-.119.018-.18.026a3.328,3.328,0,0,1-.488.042l-.008,0h-.026a3.4,3.4,0,0,1-.472-.041,3.206,3.206,0,0,1-1.717-.755c-3.334-2.972-6.674-5.943-9.881-9.049A9.659,9.659,0,0,1,229,99.5c0-.041-.008-.083-.008-.124a8.551,8.551,0,0,1,.557-3.02c.026-.075.053-.148.081-.223.018-.043.034-.089.053-.13a7.752,7.752,0,0,1,3.636-4.081,8.55,8.55,0,0,1,2.688-.988c.229-.044.453-.079.68-.1.026,0,.055,0,.083-.008.237-.022.47-.032.7-.034.039,0,.075-.006.113-.006s.085.006.129.006q.166.006.332.018a8.562,8.562,0,0,1,6.262,3.227,8.576,8.576,0,0,1,13.478.042c.1.13.2.263.3.4.053.075.1.152.152.229.109.166.215.338.312.514.016.03.036.059.051.091.117.215.225.441.322.67l.038.079c.1.233.182.47.259.713l.03.093c.073.239.136.484.19.731.008.041.014.081.022.121.047.243.087.49.113.741.006.051.008.1.012.156.01.107.02.212.026.318s.006.209.008.314c0,.043.006.085.006.13Z" transform="translate(-98.774 -66.115)" fill="#1f387e"/>
        <path id="Caminho_4" data-name="Caminho 4" d="M204.621,76.387a3.8,3.8,0,1,0,3.794,3.794,3.8,3.8,0,0,0-3.794-3.794" transform="translate(-114.216 -56.102)" fill="#1f387e"/>
        <path id="Caminho_5" data-name="Caminho 5" d="M238.382,106.6a7.468,7.468,0,0,1,0-10.517l5.486-5.486L221.693,68.417a7.464,7.464,0,0,0-10.523,0L189,90.59l5.48,5.48a7.468,7.468,0,0,1,0,10.517l-5.725,5.727,22.412,22.42a7.468,7.468,0,0,0,10.523,0L244.1,112.319Zm-23.42,12.357a2.094,2.094,0,1,1-4.188,0V104.032l-8.715-4.98a2.094,2.094,0,0,1,2.077-3.636L213.908,101a2.1,2.1,0,0,1,1.053,1.818ZM216.4,98.064a7.983,7.983,0,1,1,7.984-7.984,7.993,7.993,0,0,1-7.984,7.984m14.4.988-8.715,4.98v14.924a2.094,2.094,0,1,1-4.188,0V102.815A2.1,2.1,0,0,1,218.954,101l9.771-5.581a2.094,2.094,0,1,1,2.077,3.636" transform="translate(-125.999 -66)" fill="#1f387e"/>
        <path id="Caminho_6" data-name="Caminho 6" d="M181.838,100.336l9.861-9.863a1.262,1.262,0,0,0-1.785-1.785l-8.077,8.077V90.292l5.458-5.458a1.263,1.263,0,0,0-1.787-1.786l-3.672,3.674V79.961a1.263,1.263,0,0,0-2.526,0v6.8L175.6,83.048a1.263,1.263,0,0,0-1.785,1.786l5.5,5.5v6.472l-8.12-8.12a1.263,1.263,0,0,0-1.786,1.785l9.907,9.909v6.265c.417.036.836.071,1.263.071s.846-.038,1.263-.073Z" transform="translate(-145.251 -53.846)" fill="#1f387e"/>
        <path id="Caminho_7" data-name="Caminho 7" d="M214.278,96.439,220,90.712,197.589,68.294a7.463,7.463,0,0,0-10.525,0l-27.892,27.9a7.454,7.454,0,0,0,0,10.518l27.892,27.9a7.474,7.474,0,0,0,10.525,0l22.169-22.173-5.48-5.484a7.452,7.452,0,0,1,0-10.513m-7.138,8.14c0,.053.006.107.006.16a14.392,14.392,0,0,1-.538,3.9c-.026.1-.053.192-.081.287-.016.057-.032.117-.047.172a9.875,9.875,0,0,1-2.743,4.449,14.68,14.68,0,0,1-22.578.3,9.9,9.9,0,0,1-1.879-2.265c-.1-.168-.2-.338-.289-.514-.051-.1-.1-.2-.146-.3-.107-.215-.208-.437-.3-.662-.016-.039-.034-.079-.05-.119-.115-.279-.217-.569-.312-.864l-.036-.1c-.095-.3-.178-.607-.251-.921l-.03-.119c-.071-.31-.13-.624-.182-.947-.008-.051-.016-.1-.022-.154-.045-.314-.085-.63-.111-.954,0-.067-.006-.136-.012-.2-.008-.136-.018-.275-.022-.413s-.006-.271-.008-.405c0-.055-.008-.111-.008-.168l0-.059.006-.089c-.006-.154-.047-.3-.047-.457a14.653,14.653,0,0,1,.707-4.3c.073-.261.15-.52.239-.773a14.079,14.079,0,0,1,.557-1.332,13.857,13.857,0,0,1,.783-1.441c.15-.243.3-.486.462-.721.125-.178.219-.377.354-.551,3.126-4.047,6.383-7.919,9.634-11.79a2.814,2.814,0,0,1,1.318-.871c.053-.018.1-.039.158-.053s.116-.024.178-.036a2.484,2.484,0,0,1,.47-.049h.008l.026,0a2.322,2.322,0,0,1,.454.051,2.83,2.83,0,0,1,1.666.974c3.225,3.838,6.456,7.676,9.559,11.685.184.237.324.506.494.755.081.115.152.231.229.35a14.7,14.7,0,0,1,1.051,1.935c.1.231.21.461.3.7a14.345,14.345,0,0,1,.514,1.652c.109.413.223.82.3,1.247.049.31.063.64.095.962a14.342,14.342,0,0,1,.162,1.6c0,.152-.04.292-.044.443Z" transform="translate(-157 -66.122)" fill="#1f387e"/>
      </g>
      <path id="Caminho_132" data-name="Caminho 132" d="M46.416,8.672s4.209,1.178,4.629,1.473,8.8,6.06,8.8,6.4-.084,2.273,0,3.2.8,3.325,0,4.671-2.4,3.914-3.409,4.461-3.83,1.936-4.04,2.02a6.261,6.261,0,0,1-3.072,1.136c-2.146.295-5.471-.8-6.776-4.8s-3.661-6.06-2.483-8.291a31.071,31.071,0,0,0,1.852-4.924,9.614,9.614,0,0,1,1.852-3.283C44.48,10.1,46.416,8.672,46.416,8.672Z" transform="translate(67.299 14.686)" fill="#1f387e"/>
    </g>
    <path id="Caminho_134" data-name="Caminho 134" d="M2863.481,3876.89s3.24,1.094,4.461.926,5.26,1.3,5.3,1.473a46.03,46.03,0,0,1,2.062,4.292c.042.547.8,2.568.884,3.157s1.22,3.156,0,4.292a43.994,43.994,0,0,0-3.2,3.957c-.632.715-1.347,1.768-2.146,1.852s-4.125,2.441-4.125,2.441h-1.178a3.241,3.241,0,0,1-2.273-.252c-1.431-.589-4.629-.295-5.64-2.694s-1.515-1.852-1.683-5.3-.632-6.271-.295-8.29.757-3.746,1.43-4.293a5.431,5.431,0,0,1,1.894-1.179,37.8,37.8,0,0,1,4.04-.379Z" transform="translate(-2696.259 -3833.943)" fill="#1f387e"/>
  </g>
</svg>
