<svg id="Grupo_671" data-name="Grupo 671" xmlns="http://www.w3.org/2000/svg" width="72.326" height="97.45" viewBox="0 0 72.326 97.45">
  <defs>
    <style>
      .cls-1 {
        fill: #909fb9;
      }
    </style>
  </defs>
  <path id="Caminho_122" data-name="Caminho 122" class="cls-1" d="M53.261,41.7" transform="translate(-17.097 -30.282)"/>
  <path id="Caminho_123" data-name="Caminho 123" class="cls-1" d="M95.476,107.955l7.378,7.269-1.7,10.216a1.9,1.9,0,0,0,2.755,2l9.192-4.773,9.191,4.773a1.9,1.9,0,0,0,2.755-2l-1.7-10.216,7.378-7.269a1.9,1.9,0,0,0-1.053-3.238l-10.239-1.541L114.8,93.912a1.9,1.9,0,0,0-3.4,0l-4.633,9.265-10.239,1.541a1.9,1.9,0,0,0-1.053,3.238Zm12.836-1.162a1.9,1.9,0,0,0,1.419-1.031l3.372-6.744,3.372,6.744a1.9,1.9,0,0,0,1.419,1.031l7.452,1.122-5.37,5.29a1.907,1.907,0,0,0-.542,1.668l1.236,7.436-6.69-3.474a1.9,1.9,0,0,0-1.754,0l-6.69,3.474,1.236-7.436a1.9,1.9,0,0,0-.542-1.668l-5.369-5.29Zm0,0" transform="translate(-76.939 -75.186)"/>
  <path id="Caminho_125" data-name="Caminho 125" class="cls-1" d="M27.693,5.641A36.166,36.166,0,0,0,12.4,67.5L.938,87.706a1.9,1.9,0,0,0,2.042,2.8L16,87.805l4.577,12.9a1.9,1.9,0,0,0,3.448.3L36.663,78.791,49.3,101.007a1.9,1.9,0,0,0,1.654.962c.056,0,.112,0,.168-.007a1.906,1.906,0,0,0,1.627-1.259l4.576-12.9,13.022,2.7a1.9,1.9,0,0,0,2.042-2.8L60.921,67.5A36.167,36.167,0,0,0,45.634,5.641a1.9,1.9,0,1,0-.942,3.688,32.356,32.356,0,1,1-16.057,0,1.9,1.9,0,1,0-.941-3.688ZM22.776,95.509l-3.74-10.54a1.9,1.9,0,0,0-2.181-1.228L6.325,85.927,15.4,69.933A36.241,36.241,0,0,0,33.472,76.7Zm33.7-11.768a1.9,1.9,0,0,0-2.181,1.228l-3.74,10.54L39.855,76.7a36.243,36.243,0,0,0,18.073-6.77L67,85.927Zm0,0" transform="translate(-0.5 -4.519)"/>
  <path id="Caminho_126" data-name="Caminho 126" class="cls-1" d="M40.5,76.163A36.163,36.163,0,1,0,76.663,40,36.2,36.2,0,0,0,40.5,76.163ZM76.663,44.822A31.341,31.341,0,1,1,45.322,76.163,31.376,31.376,0,0,1,76.663,44.822Zm0,0" transform="translate(-40.499 -40)"/>
</svg>
