<svg id="XMLID_1230_" xmlns="http://www.w3.org/2000/svg" width="93.717" height="93.724" viewBox="0 0 93.717 93.724">
  <defs>
    <style>
      .cls-1 {
        fill: #909fb9;
      }
    </style>
  </defs>
  <g id="XMLID_416_" transform="translate(0 0)">
    <path id="XMLID_420_" class="cls-1" d="M92.457,1.423A1.831,1.831,0,0,0,89.976.138a50.425,50.425,0,0,0-18.564,13.23V7.228A7.237,7.237,0,0,0,64.184,0H7.248A7.236,7.236,0,0,0,.02,7.228v30.7a1.831,1.831,0,0,0,3.661,0V7.228A3.571,3.571,0,0,1,7.248,3.661H64.184a3.571,3.571,0,0,1,3.567,3.567v10.8a50.567,50.567,0,0,0-7.7,40.48,79.457,79.457,0,0,0-1.707,15.339A1.831,1.831,0,0,0,60.148,75.7h.025A1.831,1.831,0,0,0,62,73.894,75.787,75.787,0,0,1,63.555,59.65q2.152-.973,4.2-2.138V86.5a3.571,3.571,0,0,1-3.567,3.567H7.248A3.571,3.571,0,0,1,3.681,86.5V54.4a1.831,1.831,0,0,0-3.661,0V86.5a7.236,7.236,0,0,0,7.228,7.228H64.184A7.236,7.236,0,0,0,71.412,86.5V55.219a51.426,51.426,0,0,0,21.045-53.8Zm-3.124,3A47.589,47.589,0,0,1,87.789,27.5L75.629,31.53A76.651,76.651,0,0,1,81.781,23.8a1.831,1.831,0,0,0-2.712-2.46A80.17,80.17,0,0,0,68.422,36.161l-1.655-8.914A46.911,46.911,0,0,1,89.333,4.42ZM64.276,33.886l1.417,7.633a79.678,79.678,0,0,0-3.24,8.155A46.818,46.818,0,0,1,64.276,33.886Zm.375,21.154a76.066,76.066,0,0,1,7.838-18.612l13.634-4.52A47.577,47.577,0,0,1,64.651,55.041Z" transform="translate(-0.02 0)"/>
    <path id="XMLID_424_" class="cls-1" d="M57.038,364.886a10.809,10.809,0,0,0,7.886,3.374,1.831,1.831,0,0,0,0-3.661,7.243,7.243,0,0,1-7.234-7.587,7.285,7.285,0,0,1,6.89-6.89,7.242,7.242,0,0,1,7.586,7.234,1.831,1.831,0,0,0,3.341,1.034l2.671-3.9a.694.694,0,0,1,1.187.07,4.354,4.354,0,0,0,7.406.509.872.872,0,0,1,1.495.127,7.091,7.091,0,0,0,6.354,3.992h2.053a1.831,1.831,0,0,0,0-3.661H94.619a3.411,3.411,0,0,1-3.056-1.92,4.533,4.533,0,0,0-7.775-.662.693.693,0,0,1-1.179-.081,4.355,4.355,0,0,0-7.452-.442l-.295.43a10.907,10.907,0,1,0-17.824,12.035Z" transform="translate(-44.135 -283.032)"/>
    <path id="XMLID_425_" class="cls-1" d="M177.146,445.58a1.831,1.831,0,1,0,0,3.661h16.238a1.831,1.831,0,0,0,0-3.661Z" transform="translate(-143.226 -364.014)"/>
    <path id="XMLID_1087_" class="cls-1" d="M54.02,112.767v4.041a1.831,1.831,0,0,0,1.831,1.831H95.413a1.831,1.831,0,0,0,1.831-1.831v-4.041a17.516,17.516,0,0,0-14.436-17.22,9.253,9.253,0,0,0,2.119-5.9V85.458c0-.025,0-.049,0-.074a8.2,8.2,0,0,0,2.962-6.31V76.246a1.831,1.831,0,0,0-1.831-1.831H72.61A8.223,8.223,0,0,0,64.4,82.629a4.656,4.656,0,0,0,1.941,3.781v3.236a9.253,9.253,0,0,0,2.119,5.9A17.516,17.516,0,0,0,54.02,112.767ZM80.182,98.952l-4.55,7.017-4.55-7.017C71.223,98.947,80.04,98.947,80.182,98.952Zm1.084-9.306a5.634,5.634,0,1,1-11.268,0V87.289h9.674a8.22,8.22,0,0,0,1.595-.157v2.513ZM72.61,78.076H84.224v1a4.558,4.558,0,0,1-4.553,4.553H69.056a1,1,0,0,1-1-1A4.558,4.558,0,0,1,72.61,78.076ZM67.166,99.643l6.93,10.686a1.831,1.831,0,0,0,3.072,0L84.1,99.643a13.848,13.848,0,0,1,9.485,13.124v2.21h-35.9v-2.21A13.848,13.848,0,0,1,67.166,99.643Z" transform="translate(-44.135 -60.793)"/>
    <path id="XMLID_1144_" class="cls-1" d="M213.518,258.828h1.342a1.831,1.831,0,1,0,0-3.661h-1.342a1.831,1.831,0,1,0,0,3.661Z" transform="translate(-172.94 -208.457)"/>
    <path id="XMLID_1149_" class="cls-1" d="M1.851,245.861A1.83,1.83,0,1,0,.02,244.031a1.831,1.831,0,0,0,1.831,1.831Z" transform="translate(-0.02 -197.864)"/>
    <path id="Caminho_127" data-name="Caminho 127" class="cls-1" d="M0,15.169V40.318H3.685V15.169Z" transform="translate(0 20.975)"/>
  </g>
</svg>
