<svg xmlns="http://www.w3.org/2000/svg" width="159.75" height="164.903" viewBox="0 0 159.75 164.903">
  <g id="Grupo_806" data-name="Grupo 806" transform="translate(-138.289 -2546.846)">
    <g id="Grupo_710" data-name="Grupo 710" transform="translate(138.289 2546.846)">
      <g id="Frame" transform="translate(0 0)">
        <g id="Grupo_709" data-name="Grupo 709">
          <path id="Caminho_138" data-name="Caminho 138" d="M102.02,334.433,151.594,289.6a13,13,0,0,0,6.905,7.627l-41.123,37.206Z" transform="translate(-83.932 -270.018)" fill="#fff"/>
          <path id="Caminho_139" data-name="Caminho 139" d="M169.183,334.432,128.06,297.225a13,13,0,0,0,6.905-7.624l49.574,44.831Z" transform="translate(-42.877 -270.016)" fill="#fff"/>
          <path id="Caminho_145" data-name="Caminho 145" d="M0,0H154.029V98.115H0Z" transform="translate(2.86 64.517)" fill="#dee6ff"/>
          <path id="Caminho_140" data-name="Caminho 140" d="M115.46,388.3A15.475,15.475,0,0,0,100,372.839V326.46A15.475,15.475,0,0,0,115.46,311H218.524a15.475,15.475,0,0,0,15.46,15.46v46.379a15.475,15.475,0,0,0-15.46,15.46Z" transform="translate(-87.117 -236.075)" fill="#fff"/>
          <path id="Caminho_146" data-name="Caminho 146" d="M12.66,0A12.932,12.932,0,0,1,25.32,13.187,12.932,12.932,0,0,1,12.66,26.375,12.932,12.932,0,0,1,0,13.187,12.932,12.932,0,0,1,12.66,0Z" transform="translate(67.215 2.272)" fill="#dee6ff"/>
          <ellipse id="Elipse_2" data-name="Elipse 2" cx="5.428" cy="4.749" rx="5.428" ry="4.749" transform="translate(74.447 10.535)" fill="#fff"/>
          <g id="Grupo_708" data-name="Grupo 708">
            <path id="Caminho_142" data-name="Caminho 142" d="M252.173,343.839H237.654l-47.673-43.114a15.46,15.46,0,1,0-30.213,0L112.1,343.839H97.577A2.578,2.578,0,0,0,95,346.415v97.911a2.578,2.578,0,0,0,2.577,2.577h154.6a2.578,2.578,0,0,0,2.577-2.577V346.415A2.578,2.578,0,0,0,252.173,343.839ZM187.9,305.787l42.071,38.051H222.3L184.452,309.6A17.2,17.2,0,0,0,187.9,305.787Zm-13.025,7.132a15.409,15.409,0,0,0,4.738-.75l35,31.669H135.133l35-31.669A15.409,15.409,0,0,0,174.875,312.919Zm0-25.766a10.306,10.306,0,0,1,0,20.613,10.446,10.446,0,0,1-10.307-10.306A10.317,10.317,0,0,1,174.875,287.153ZM161.85,305.787A17.226,17.226,0,0,0,165.3,309.6l-37.845,34.241h-7.673ZM249.6,441.75H100.153V348.992H249.6Z" transform="translate(-95 -282)" fill="#51a4ff"/>
            <path id="Caminho_143" data-name="Caminho 143" d="M222.677,312.577A2.578,2.578,0,0,0,220.1,310H117.036a2.578,2.578,0,0,0-2.577,2.577,12.9,12.9,0,0,1-12.883,12.883A2.577,2.577,0,0,0,99,328.036v46.379a2.577,2.577,0,0,0,2.577,2.577,12.9,12.9,0,0,1,12.883,12.883,2.578,2.578,0,0,0,2.577,2.577H220.1a2.578,2.578,0,0,0,2.577-2.577,12.9,12.9,0,0,1,12.883-12.883,2.578,2.578,0,0,0,2.577-2.577V328.036a2.578,2.578,0,0,0-2.577-2.577A12.9,12.9,0,0,1,222.677,312.577Zm10.306,59.445A18.081,18.081,0,0,0,217.707,387.3H119.43a18.081,18.081,0,0,0-15.277-15.277V330.43a18.081,18.081,0,0,0,15.277-15.277h98.277a18.081,18.081,0,0,0,15.277,15.277Z" transform="translate(-88.694 -237.855)" fill="#51a4ff"/>
            <path id="Caminho_144" data-name="Caminho 144" d="M130.73,300.46a7.73,7.73,0,1,0-7.73-7.73A7.739,7.739,0,0,0,130.73,300.46Zm0-10.307a2.577,2.577,0,1,1-2.577,2.577A2.581,2.581,0,0,1,130.73,290.153Z" transform="translate(-50.855 -277.27)" fill="#51a4ff"/>
          </g>
        </g>
      </g>
    </g>
    <text id="_7_DIAS" data-name="7 DIAS" transform="translate(218.282 2670.867)" fill="#51a4ff" font-size="27" font-family="Poppins-Bold, Poppins" font-weight="700"><tspan x="-42.133" y="0">7 DIAS</tspan></text>
  </g>
</svg>
